<?xml version="1.0" encoding="utf-8"?>
<!-- Generator: Adobe Illustrator 26.5.0, SVG Export Plug-In . SVG Version: 6.00 Build 0)  -->
<svg version="1.1" id="Layer_1" xmlns="http://www.w3.org/2000/svg" xmlns:xlink="http://www.w3.org/1999/xlink" x="0px" y="0px"
	 viewBox="0 0 171.6 76.3" style="enable-background:new 0 0 171.6 76.3;" xml:space="preserve">
<style type="text/css">
	.st0{opacity:0.5;}
	.st1{fill:#ED1C24;stroke:#ED1C24;stroke-width:0.5;stroke-miterlimit:10;}
	.st2{fill:none;stroke:#ED1C24;stroke-width:0.5;stroke-miterlimit:10;}
	.st3{opacity:0.5;fill:#D1D3D4;}
	.st4{fill:none;stroke:#ED1C24;stroke-miterlimit:10;}
	.st5{opacity:0.5;fill:url(#SVGID_1_);stroke:#ED1C24;stroke-width:0.5;stroke-miterlimit:10;}
</style>
<g>
	<g class="st0">
		<path class="st1" d="M107.1,53.1l0.7,0.6c-1.6,2.1-3.2,3.7-4.7,4.6c-1.5,1-3.2,1.4-5,1.4c-2.1,0-3.8-0.7-5.1-2.1
			c-1.3-1.4-1.9-3.3-1.9-5.6c0-2.3,0.6-4.7,1.9-7.1c1.2-2.4,2.8-4.4,4.7-6s3.7-2.4,5.5-2.4c1.1,0,1.9,0.3,2.6,0.9
			c0.7,0.6,1,1.4,1,2.4c0,2-1.1,4-3.3,6c-2.2,2-5.2,3.7-9,5.1c0,0.2,0,0.4,0,0.7c0,1.8,0.5,3.3,1.5,4.4s2.3,1.7,3.8,1.7
			c1.2,0,2.4-0.4,3.6-1.2C104.6,55.9,105.8,54.7,107.1,53.1z M94.6,50.1c2.8-1.3,5-2.6,6.5-4.2c1-1,1.8-2.2,2.5-3.4
			c0.6-1.2,0.9-2.3,0.9-3.2c0-1.2-0.6-1.8-1.7-1.8c-1.7,0-3.4,1.3-5.1,4C95.9,44.2,94.9,47,94.6,50.1z"/>
		<path class="st1" d="M132.6,36l-3.7,14.3c-0.4,1.6-0.6,2.8-0.6,3.7c0,0.8,0.2,1.5,0.5,2c0.3,0.6,0.8,0.9,1.3,0.9
			c0.8,0,2-0.9,3.8-2.8l0.5,0.5l-0.4,0.5c-1.4,1.6-2.4,2.7-3.2,3.3c-0.7,0.6-1.4,1-1.9,1c-0.8,0-1.6-0.4-2.2-1.3s-0.9-1.9-0.9-3
			c0-0.8,0.3-2.7,0.9-5.7L127,48c-1,2.2-2.3,4.4-3.9,6.5c-2.7,3.4-5.3,5.2-7.8,5.2c-1.5,0-2.7-0.5-3.5-1.6c-0.9-1.1-1.3-2.5-1.3-4.3
			c0-2.5,0.7-5,2.1-7.7s3.1-4.9,5.2-6.6s4.1-2.6,6-2.6c2.1,0,3.6,0.8,4.6,2.3l0.4-1.5L132.6,36z M128.1,41c-0.3-1-0.8-1.8-1.6-2.3
			c-0.7-0.6-1.6-0.8-2.6-0.8c-1.1,0-2.4,0.5-3.6,1.6c-1.3,1.1-2.5,2.5-3.5,4.4c-0.8,1.5-1.5,3.1-2.1,4.9c-0.6,1.8-0.8,3.3-0.8,4.5
			c0,1.3,0.3,2.4,0.8,3.1c0.5,0.8,1.2,1.1,2.2,1.1c1.2,0,2.5-0.6,3.8-1.7s2.6-2.7,3.9-4.8c0.8-1.2,1.4-2.4,1.8-3.6
			c0.4-1.2,0.9-2.9,1.5-5L128.1,41z"/>
		<path class="st1" d="M134.4,56.7l2.2-2.6c1.1,2.7,3,4.1,5.5,4.1c1.3,0,2.4-0.4,3.3-1.3c0.9-0.8,1.4-1.8,1.4-3
			c0-0.8-0.2-1.5-0.7-2.1c-0.4-0.6-1.5-1.5-3.2-2.9c-1.5-1.3-2.6-2.2-3.1-3c-0.5-0.7-0.8-1.5-0.8-2.5c0-1.2,0.4-2.4,1.1-3.4
			c0.7-1,1.7-1.9,2.9-2.5c1.2-0.6,2.5-1,3.8-1c1.2,0,2.2,0.3,3,0.9c0.8,0.6,1.2,1.3,1.2,2.2c0,1.2-0.5,2-1.5,2.5
			c-0.2-1.2-0.6-2.2-1.4-2.9c-0.8-0.7-1.8-1-3-1c-1.1,0-2,0.3-2.8,1c-0.8,0.7-1.2,1.5-1.2,2.4c0,1.1,0.7,2.2,2,3.2l2.3,1.8
			c2.2,1.7,3.3,3.5,3.3,5.4c0,1.4-0.4,2.6-1.2,3.8c-0.8,1.2-1.8,2.1-3.1,2.8c-1.3,0.7-2.7,1.1-4.2,1.1
			C137.9,59.9,136,58.8,134.4,56.7z"/>
		<path class="st1" d="M168.3,4L158,49.1l-0.4,1.5c-0.3,1.4-0.5,2.6-0.5,3.6c0,0.8,0.1,1.5,0.4,2c0.3,0.5,0.7,0.8,1.1,0.8
			c0.8,0,2.1-1,3.9-2.9l0.6,0.5l-0.4,0.4c-1.5,1.7-2.6,2.9-3.3,3.5s-1.4,0.9-2,0.9c-0.8,0-1.5-0.4-2.1-1.3c-0.6-0.9-0.9-1.9-0.9-3
			c0-0.8,0.2-2,0.5-3.7l9-45.5L168.3,4z"/>
	</g>
	<g>
		<path class="st2" d="M107.1,53.1l0.7,0.6c-1.6,2.1-3.2,3.7-4.7,4.6c-1.5,1-3.2,1.4-5,1.4c-2.1,0-3.8-0.7-5.1-2.1
			c-1.3-1.4-1.9-3.3-1.9-5.6c0-2.3,0.6-4.7,1.9-7.1c1.2-2.4,2.8-4.4,4.7-6s3.7-2.4,5.5-2.4c1.1,0,1.9,0.3,2.6,0.9
			c0.7,0.6,1,1.4,1,2.4c0,2-1.1,4-3.3,6c-2.2,2-5.2,3.7-9,5.1c0,0.2,0,0.4,0,0.7c0,1.8,0.5,3.3,1.5,4.4s2.3,1.7,3.8,1.7
			c1.2,0,2.4-0.4,3.6-1.2C104.6,55.9,105.8,54.7,107.1,53.1z M94.6,50.1c2.8-1.3,5-2.6,6.5-4.2c1-1,1.8-2.2,2.5-3.4
			c0.6-1.2,0.9-2.3,0.9-3.2c0-1.2-0.6-1.8-1.7-1.8c-1.7,0-3.4,1.3-5.1,4C95.9,44.2,94.9,47,94.6,50.1z"/>
		<path class="st2" d="M132.6,36l-3.7,14.3c-0.4,1.6-0.6,2.8-0.6,3.7c0,0.8,0.2,1.5,0.5,2c0.3,0.6,0.8,0.9,1.3,0.9
			c0.8,0,2-0.9,3.8-2.8l0.5,0.5l-0.4,0.5c-1.4,1.6-2.4,2.7-3.2,3.3c-0.7,0.6-1.4,1-1.9,1c-0.8,0-1.6-0.4-2.2-1.3s-0.9-1.9-0.9-3
			c0-0.8,0.3-2.7,0.9-5.7L127,48c-1,2.2-2.3,4.4-3.9,6.5c-2.7,3.4-5.3,5.2-7.8,5.2c-1.5,0-2.7-0.5-3.5-1.6c-0.9-1.1-1.3-2.5-1.3-4.3
			c0-2.5,0.7-5,2.1-7.7s3.1-4.9,5.2-6.6s4.1-2.6,6-2.6c2.1,0,3.6,0.8,4.6,2.3l0.4-1.5L132.6,36z M128.1,41c-0.3-1-0.8-1.8-1.6-2.3
			c-0.7-0.6-1.6-0.8-2.6-0.8c-1.1,0-2.4,0.5-3.6,1.6c-1.3,1.1-2.5,2.5-3.5,4.4c-0.8,1.5-1.5,3.1-2.1,4.9c-0.6,1.8-0.8,3.3-0.8,4.5
			c0,1.3,0.3,2.4,0.8,3.1c0.5,0.8,1.2,1.1,2.2,1.1c1.2,0,2.5-0.6,3.8-1.7s2.6-2.7,3.9-4.8c0.8-1.2,1.4-2.4,1.8-3.6
			c0.4-1.2,0.9-2.9,1.5-5L128.1,41z"/>
		<path class="st2" d="M134.4,56.7l2.2-2.6c1.1,2.7,3,4.1,5.5,4.1c1.3,0,2.4-0.4,3.3-1.3c0.9-0.8,1.4-1.8,1.4-3
			c0-0.8-0.2-1.5-0.7-2.1c-0.4-0.6-1.5-1.5-3.2-2.9c-1.5-1.3-2.6-2.2-3.1-3c-0.5-0.7-0.8-1.5-0.8-2.5c0-1.2,0.4-2.4,1.1-3.4
			c0.7-1,1.7-1.9,2.9-2.5c1.2-0.6,2.5-1,3.8-1c1.2,0,2.2,0.3,3,0.9c0.8,0.6,1.2,1.3,1.2,2.2c0,1.2-0.5,2-1.5,2.5
			c-0.2-1.2-0.6-2.2-1.4-2.9c-0.8-0.7-1.8-1-3-1c-1.1,0-2,0.3-2.8,1c-0.8,0.7-1.2,1.5-1.2,2.4c0,1.1,0.7,2.2,2,3.2l2.3,1.8
			c2.2,1.7,3.3,3.5,3.3,5.4c0,1.4-0.4,2.6-1.2,3.8c-0.8,1.2-1.8,2.1-3.1,2.8c-1.3,0.7-2.7,1.1-4.2,1.1
			C137.9,59.9,136,58.8,134.4,56.7z"/>
		<path class="st2" d="M168.3,4L158,49.1l-0.4,1.5c-0.3,1.4-0.5,2.6-0.5,3.6c0,0.8,0.1,1.5,0.4,2c0.3,0.5,0.7,0.8,1.1,0.8
			c0.8,0,2.1-1,3.9-2.9l0.6,0.5l-0.4,0.4c-1.5,1.7-2.6,2.9-3.3,3.5s-1.4,0.9-2,0.9c-0.8,0-1.5-0.4-2.1-1.3c-0.6-0.9-0.9-1.9-0.9-3
			c0-0.8,0.2-2,0.5-3.7l9-45.5L168.3,4z"/>
	</g>
</g>
<g>
	<path class="st3" d="M89.6,69.9c-2.3,1-4.8,1.5-7.5,1.5c-3.3,0-6.3-1.1-9.1-3.3c-1.6-1.3-2.9-2.7-4-4.2s-2.3-3.7-3.5-6.4l-0.3-0.6
		c2.1-1.4,3.7-3.2,4.7-5.6s1.5-5.3,1.5-8.8c0-2.4-0.4-5-1.1-7.8s-1.8-5.4-3.1-7.8c-1.1-2.2-2.3-3.9-3.6-5.1S61.1,20,60,20
		c-0.8,0-1.5,0.3-2.1,0.8c-0.2-0.2-0.3-0.4-0.5-0.5C56.9,20.1,56.5,20,56,20c-1.5,0-3,1-4.6,2.9s-3.7,5.7-6.6,11.1l-3.6,7
		c-2,3.8-4.4,7.9-7.2,12.3c-1.3,2-2.5,3.7-3.6,5.2c-1.2,1.5-2.3,2.8-3.5,3.9c-5.5,5.5-11.8,8.3-18.8,8.3c-0.7,0-1.7-0.1-3.1-0.2
		l-1.2,2.9c0.8,0.1,1.5,0.2,2.2,0.2c2.5,0,5.1-0.4,7.7-1.3s5.2-2,7.6-3.6s4.7-3.4,6.9-5.6s4.1-4.6,5.9-7.3c2.6,1.9,5,4.2,7.1,7.1
		c2.1,2.9,3.6,5.8,4.6,8.8h2.5l3.7-17.1h2.7l0.3-1.3h-2.7l3.5-16.6c0.1,0.9,0.2,1.7,0.4,2.6c0.6,3.2,1.4,6.4,2.4,9.5s2.2,5.9,3.3,8
		c-0.7,0.3-1.5,0.4-2.4,0.4s-1.7-0.1-2.6-0.4l0.3,1c0.7,0.2,1.5,0.3,2.5,0.3c1,0,1.9-0.1,2.8-0.3c2.1,3.5,4.3,6.5,6.8,8.8
		c2.4,2.3,5.1,4,7.9,5.1c2.9,1.1,6,1.7,9.4,1.7c1.6,0,3-0.2,4.1-0.5L89.6,69.9z M45.7,66.8c-1.6-2.6-3.2-4.8-4.8-6.6
		c-1.6-1.9-3.6-3.7-5.9-5.4l-0.2-0.1h13.5L45.7,66.8z M54.3,25.8c0,0-0.1,0.5-0.3,1.3l-5.5,26.2H35.8c0.3-0.5,1.3-2.1,2.8-4.9
		l3.7-6.8c0.1-0.2,0.6-1.1,1.5-2.8c1.1-2.1,1.8-3.5,2.2-4.2c2.4-4.6,4.1-7.6,5.1-9c1-1.5,1.8-2.2,2.5-2.2c0.6,0,0.8,0.3,0.8,1
		C54.5,24.8,54.4,25.3,54.3,25.8z M61.7,46.9c-1-3.7-1.8-7.5-2.5-11.3c-0.7-3.9-1-6.8-1-8.9c0-1.7,0.2-3.1,0.6-4.1
		c0.4-1,1-1.4,1.9-1.4c1.2,0,2.4,1.2,3.6,3.5s2.2,5.3,3,9c0.8,3.7,1.2,7.2,1.2,10.7c0,5.7-1.3,9.4-3.9,11.3
		C63.6,53.4,62.6,50.5,61.7,46.9z"/>
	<path class="st4" d="M89.6,69.9c-2.3,1-4.8,1.5-7.5,1.5c-3.3,0-6.3-1.1-9.1-3.3c-1.6-1.3-2.9-2.7-4-4.2s-2.3-3.7-3.5-6.4l-0.3-0.6
		c2.1-1.4,3.7-3.2,4.7-5.6s1.5-5.3,1.5-8.8c0-2.4-0.4-5-1.1-7.8s-1.8-5.4-3.1-7.8c-1.1-2.2-2.3-3.9-3.6-5.1S61.1,20,60,20
		c-0.8,0-1.5,0.3-2.1,0.8c-0.2-0.2-0.3-0.4-0.5-0.5C56.9,20.1,56.5,20,56,20c-1.5,0-3,1-4.6,2.9s-3.7,5.7-6.6,11.1l-3.6,7
		c-2,3.8-4.4,7.9-7.2,12.3c-1.3,2-2.5,3.7-3.6,5.2c-1.2,1.5-2.3,2.8-3.5,3.9c-5.5,5.5-11.8,8.3-18.8,8.3c-0.7,0-1.7-0.1-3.1-0.2
		l-1.2,2.9c0.8,0.1,1.5,0.2,2.2,0.2c2.5,0,5.1-0.4,7.7-1.3s5.2-2,7.6-3.6s4.7-3.4,6.9-5.6s4.1-4.6,5.9-7.3c2.6,1.9,5,4.2,7.1,7.1
		c2.1,2.9,3.6,5.8,4.6,8.8h2.5l3.7-17.1h2.7l0.3-1.3h-2.7l3.5-16.6c0.1,0.9,0.2,1.7,0.4,2.6c0.6,3.2,1.4,6.4,2.4,9.5s2.2,5.9,3.3,8
		c-0.7,0.3-1.5,0.4-2.4,0.4s-1.7-0.1-2.6-0.4l0.3,1c0.7,0.2,1.5,0.3,2.5,0.3c1,0,1.9-0.1,2.8-0.3c2.1,3.5,4.3,6.5,6.8,8.8
		c2.4,2.3,5.1,4,7.9,5.1c2.9,1.1,6,1.7,9.4,1.7c1.6,0,3-0.2,4.1-0.5L89.6,69.9z M45.7,66.8c-1.6-2.6-3.2-4.8-4.8-6.6
		c-1.6-1.9-3.6-3.7-5.9-5.4l-0.2-0.1h13.5L45.7,66.8z M54.3,25.8c0,0-0.1,0.5-0.3,1.3l-5.5,26.2H35.8c0.3-0.5,1.3-2.1,2.8-4.9
		l3.7-6.8c0.1-0.2,0.6-1.1,1.5-2.8c1.1-2.1,1.8-3.5,2.2-4.2c2.4-4.6,4.1-7.6,5.1-9c1-1.5,1.8-2.2,2.5-2.2c0.6,0,0.8,0.3,0.8,1
		C54.5,24.8,54.4,25.3,54.3,25.8z M61.7,46.9c-1-3.7-1.8-7.5-2.5-11.3c-0.7-3.9-1-6.8-1-8.9c0-1.7,0.2-3.1,0.6-4.1
		c0.4-1,1-1.4,1.9-1.4c1.2,0,2.4,1.2,3.6,3.5s2.2,5.3,3,9c0.8,3.7,1.2,7.2,1.2,10.7c0,5.7-1.3,9.4-3.9,11.3
		C63.6,53.4,62.6,50.5,61.7,46.9z"/>
	<linearGradient id="SVGID_1_" gradientUnits="userSpaceOnUse" x1="3.7805" y1="46.7678" x2="90.7241" y2="46.7678">
		<stop  offset="0" style="stop-color:#FFFFFF;stop-opacity:0"/>
		<stop  offset="0.2405" style="stop-color:#FFFEFD;stop-opacity:0.386"/>
		<stop  offset="0.3271" style="stop-color:#FEF8F6;stop-opacity:0.525"/>
		<stop  offset="0.3889" style="stop-color:#FEEFEB;stop-opacity:0.6242"/>
		<stop  offset="0.4388" style="stop-color:#FDE2DA;stop-opacity:0.7043"/>
		<stop  offset="0.4816" style="stop-color:#FBD1C4;stop-opacity:0.773"/>
		<stop  offset="0.5194" style="stop-color:#F9BCA8;stop-opacity:0.8338"/>
		<stop  offset="0.5537" style="stop-color:#F7A388;stop-opacity:0.8888"/>
		<stop  offset="0.5852" style="stop-color:#F58662;stop-opacity:0.9393"/>
		<stop  offset="0.6132" style="stop-color:#F26639;stop-opacity:0.9843"/>
		<stop  offset="0.623" style="stop-color:#F15A29"/>
	</linearGradient>
	<path class="st5" d="M89.6,69.9c-2.3,1-4.8,1.5-7.5,1.5c-3.3,0-6.3-1.1-9.1-3.3c-1.6-1.3-2.9-2.7-4-4.2s-2.3-3.7-3.5-6.4l-0.3-0.6
		c2.1-1.4,3.7-3.2,4.7-5.6s1.5-5.3,1.5-8.8c0-2.4-0.4-5-1.1-7.8s-1.8-5.4-3.1-7.8c-1.1-2.2-2.3-3.9-3.6-5.1S61.1,20,60,20
		c-0.8,0-1.5,0.3-2.1,0.8c-0.2-0.2-0.3-0.4-0.5-0.5C56.9,20.1,56.5,20,56,20c-1.5,0-3,1-4.6,2.9s-3.7,5.7-6.6,11.1l-3.6,7
		c-2,3.8-4.4,7.9-7.2,12.3c-1.3,2-2.5,3.7-3.6,5.2c-1.2,1.5-2.3,2.8-3.5,3.9c-5.5,5.5-11.8,8.3-18.8,8.3c-0.7,0-1.7-0.1-3.1-0.2
		l-1.2,2.9c0.8,0.1,1.5,0.2,2.2,0.2c2.5,0,5.1-0.4,7.7-1.3s5.2-2,7.6-3.6s4.7-3.4,6.9-5.6s4.1-4.6,5.9-7.3c2.6,1.9,5,4.2,7.1,7.1
		c2.1,2.9,3.6,5.8,4.6,8.8h2.5l3.7-17.1h2.7l0.3-1.3h-2.7l3.5-16.6c0.1,0.9,0.2,1.7,0.4,2.6c0.6,3.2,1.4,6.4,2.4,9.5s2.2,5.9,3.3,8
		c-0.7,0.3-1.5,0.4-2.4,0.4s-1.7-0.1-2.6-0.4l0.3,1c0.7,0.2,1.5,0.3,2.5,0.3c1,0,1.9-0.1,2.8-0.3c2.1,3.5,4.3,6.5,6.8,8.8
		c2.4,2.3,5.1,4,7.9,5.1c2.9,1.1,6,1.7,9.4,1.7c1.6,0,3-0.2,4.1-0.5L89.6,69.9z M45.7,66.8c-1.6-2.6-3.2-4.8-4.8-6.6
		c-1.6-1.9-3.6-3.7-5.9-5.4l-0.2-0.1h13.5L45.7,66.8z M54.3,25.8c0,0-0.1,0.5-0.3,1.3l-5.5,26.2H35.8c0.3-0.5,1.3-2.1,2.8-4.9
		l3.7-6.8c0.1-0.2,0.6-1.1,1.5-2.8c1.1-2.1,1.8-3.5,2.2-4.2c2.4-4.6,4.1-7.6,5.1-9c1-1.5,1.8-2.2,2.5-2.2c0.6,0,0.8,0.3,0.8,1
		C54.5,24.8,54.4,25.3,54.3,25.8z M61.7,46.9c-1-3.7-1.8-7.5-2.5-11.3c-0.7-3.9-1-6.8-1-8.9c0-1.7,0.2-3.1,0.6-4.1
		c0.4-1,1-1.4,1.9-1.4c1.2,0,2.4,1.2,3.6,3.5s2.2,5.3,3,9c0.8,3.7,1.2,7.2,1.2,10.7c0,5.7-1.3,9.4-3.9,11.3
		C63.6,53.4,62.6,50.5,61.7,46.9z"/>
</g>
</svg>
