<?xml version="1.0" encoding="UTF-8"?><svg id="Layer_2" xmlns="http://www.w3.org/2000/svg" viewBox="0 0 32.9997 40.1464"><defs><style>.cls-1{fill:#fff;stroke:#00aeef;}.cls-1,.cls-2{stroke-miterlimit:10;}.cls-2{fill:#939598;stroke:#939598;}</style></defs><g id="Layer_1-2"><g><path class="cls-2" d="M6.7813,21.8667c.9062-.0374,1.8158-.0323,2.7224-.0001,.3657,.013,.5106-.1223,.6265-.4451,1.1091-3.0878,2.232-6.1707,3.3524-9.2545,.3786-1.042,.7613-2.0825,1.1421-3.1236,.0267,.0083,.0535,.0165,.0803,.0248v.2765c0,4.0011,.0064,8.0023-.0097,12.0034-.0016,.4036,.0767,.5399,.5066,.5195,.8318-.0395,1.6682-.0409,2.4999,0,.4592,.0226,.5761-.0982,.5737-.5661-.0211-4.0747-.0122-8.1497-.0122-12.2245,.0276-.0053,.0551-.0106,.0826-.0158,.0454,.1143,.0938,.2276,.1358,.3431,1.4482,3.9843,2.9003,7.9673,4.3359,11.9561,.1296,.3601,.2763,.5253,.6934,.5077,.9246-.0389,1.8528-.0349,2.778-.0025,.4593,.0161,.4583-.1202,.3225-.4919-2.4915-6.8219-4.9738-13.6471-7.446-20.476-.1151-.3179-.2738-.4002-.593-.3963-1.3892,.0172-2.7789,.0198-4.168-.0013-.3534-.0053-.4955,.1059-.6163,.4421-1.234,3.4346-2.4923,6.8604-3.7412,10.2896-1.2237,3.36-2.4361,6.7241-3.6759,10.0781-.1798,.4863-.0796,.5769,.4102,.5567Z"/><path class="cls-1" d="M32.1272,36.5572c-1.1208-3.1008-2.2543-6.197-3.4089-9.3644,.5957,0,1.1145-.0152,1.6317,.006,.2854,.0117,.3809-.0676,.374-.3657-.02-.8701-.0393-1.7427,.0055-2.6109,.0251-.4878-.1077-.6005-.597-.5996-9.0957,.017-18.1913,.0125-27.287,.0125-.0926,0-.1863,.0091-.2777-.0017-.231-.0273-.3256,.0457-.322,.3006,.0139,.9815,.0175,1.9636-.0015,2.945-.0058,.2998,.1268,.3237,.3641,.3179,.529-.0128,1.0585-.004,1.6314-.004-.0688,.195-.116,.3323-.1656,.4687-1.1451,3.1531-2.2934,6.305-3.4341,9.4596-.3841,1.0622,.0432,2.0622,1.0106,2.4103,.9773,.3516,1.917-.1311,2.3175-1.2102,.4425-1.1923,.8779-2.3875,1.2951-3.5888,.1132-.326,.2696-.4346,.6289-.4339,.2842,.0006,.5685-.0005,.8527,0l1.2065-3.548c-.4066,.0001-.8116,.0003-1.2224,.0003,.417-1.1542,.8146-2.2425,1.2008-3.3347,.0714-.2018,.2034-.2255,.3841-.2252,2.018,.0034,4.036,.0067,6.0539-.0034,.2638-.0013,.3474,.0692,.3431,.3389-.0154,.9624-.0149,1.9253-.0003,2.8877,.004,.2646-.0706,.3436-.3394,.3425-.1773-.0007-.3549-.0008-.5322-.0014v3.543c1.8244,.0009,3.6489,.0008,5.4733-.0003v-3.5381c-.1842,.0017-.3684,.0004-.5526,.0027-.4263,.0052-.5218-.1127-.5068-.519,.0328-.8872,.0247-1.7769,.0025-2.6648-.008-.3224,.0975-.3944,.4036-.3924,1.9806,.013,3.9614,.011,5.942,.0015,.2627-.0012,.3822,.0756,.4719,.336,.3597,1.0442,.7519,2.0772,1.1735,3.227h-1.0463l1.206,3.5467c.2199-.0004,.4398,.0004,.6598,0,.393-.0008,.5337,.1325,.6525,.4784,.4249,1.2375,.8738,2.4672,1.3362,3.6913,.2982,.7894,1.0439,1.2486,1.823,1.1707,.7956-.0796,1.4383-.6766,1.595-1.4779,.1142-.584-.1594-1.0879-.3456-1.6028Z"/></g></g></svg>