<?xml version="1.0" encoding="utf-8"?>
<!-- Generator: Adobe Illustrator 26.5.0, SVG Export Plug-In . SVG Version: 6.00 Build 0)  -->
<svg version="1.1" id="Layer_1" xmlns="http://www.w3.org/2000/svg" xmlns:xlink="http://www.w3.org/1999/xlink" x="0px" y="0px"
	 viewBox="0 0 59.9 72.2" style="enable-background:new 0 0 59.9 72.2;" xml:space="preserve">
<style type="text/css">
	.st0{fill:#939598;stroke:#939598;stroke-miterlimit:10;}
	.st1{fill:#FFFFFF;stroke:#00AEEF;stroke-miterlimit:10;}
</style>
<g>
	<path class="st0" d="M12.5,39c1.6-0.1,3.2-0.1,4.8,0c0.6,0,0.9-0.2,1.1-0.8c2-5.4,3.9-10.9,5.9-16.3c0.7-1.8,1.3-3.7,2-5.5
		c0,0,0.1,0,0.1,0c0,0.2,0,0.3,0,0.5c0,7,0,14.1,0,21.1c0,0.7,0.1,1,0.9,0.9c1.5-0.1,2.9-0.1,4.4,0c0.8,0,1-0.2,1-1
		c0-7.2,0-14.4,0-21.5c0,0,0.1,0,0.1,0c0.1,0.2,0.2,0.4,0.2,0.6c2.6,7,5.1,14,7.6,21.1C41,38.7,41.2,39,42,39c1.6-0.1,3.3-0.1,4.9,0
		c0.8,0,0.8-0.2,0.6-0.9c-4.4-12-8.8-24-13.1-36.1c-0.2-0.6-0.5-0.7-1-0.7c-2.4,0-4.9,0-7.3,0c-0.6,0-0.9,0.2-1.1,0.8
		c-2.2,6-4.4,12.1-6.6,18.1C16.1,26.2,14,32.1,11.8,38C11.5,38.9,11.7,39,12.5,39z"/>
	<path class="st1" d="M57.2,64.9c-2-5.5-4-10.9-6-16.5c1,0,2,0,2.9,0c0.5,0,0.7-0.1,0.7-0.6c0-1.5-0.1-3.1,0-4.6
		c0-0.9-0.2-1.1-1.1-1.1c-16,0-32,0-48,0c-0.2,0-0.3,0-0.5,0c-0.4,0-0.6,0.1-0.6,0.5c0,1.7,0,3.5,0,5.2c0,0.5,0.2,0.6,0.6,0.6
		c0.9,0,1.9,0,2.9,0c-0.1,0.3-0.2,0.6-0.3,0.8c-2,5.6-4,11.1-6,16.7c-0.7,1.9,0.1,3.6,1.8,4.2c1.7,0.6,3.4-0.2,4.1-2.1
		c0.8-2.1,1.5-4.2,2.3-6.3c0.2-0.6,0.5-0.8,1.1-0.8c0.5,0,1,0,1.5,0l2.1-6.2c-0.7,0-1.4,0-2.2,0c0.7-2,1.4-3.9,2.1-5.9
		c0.1-0.4,0.4-0.4,0.7-0.4c3.6,0,7.1,0,10.7,0c0.5,0,0.6,0.1,0.6,0.6c0,1.7,0,3.4,0,5.1c0,0.5-0.1,0.6-0.6,0.6c-0.3,0-0.6,0-0.9,0
		v6.2c3.2,0,6.4,0,9.6,0v-6.2c-0.3,0-0.6,0-1,0c-0.8,0-0.9-0.2-0.9-0.9c0.1-1.6,0-3.1,0-4.7c0-0.6,0.2-0.7,0.7-0.7c3.5,0,7,0,10.5,0
		c0.5,0,0.7,0.1,0.8,0.6c0.6,1.8,1.3,3.7,2.1,5.7c-0.7,0-1.3,0-1.8,0l2.1,6.2c0.4,0,0.8,0,1.2,0c0.7,0,0.9,0.2,1.1,0.8
		c0.7,2.2,1.5,4.3,2.4,6.5c0.5,1.4,1.8,2.2,3.2,2.1c1.4-0.1,2.5-1.2,2.8-2.6C58,66.6,57.5,65.8,57.2,64.9z"/>
</g>
</svg>
